<mxfile host="65bd71144e">
    <diagram id="E05WuinE-GsztsUl-9Fj" name="Page-1">
        <mxGraphModel dx="857" dy="899" grid="1" gridSize="10" guides="1" tooltips="1" connect="1" arrows="1" fold="1" page="1" pageScale="1" pageWidth="850" pageHeight="1100" math="0" shadow="0">
            <root>
                <mxCell id="0"/>
                <mxCell id="1" parent="0"/>
                <mxCell id="2" value="DOMAIN EVENT" style="shape=note;whiteSpace=wrap;html=1;backgroundOutline=1;darkOpacity=0.05;fillColor=#f0a30a;strokeColor=#BD7000;fontColor=#000000;fontSize=16;fontStyle=1;align=left;verticalAlign=top;spacing=10;fontFamily=Comic Sans MS;" vertex="1" parent="1">
                    <mxGeometry x="280" y="80" width="120" height="120" as="geometry"/>
                </mxCell>
                <mxCell id="4" style="edgeStyle=none;html=1;strokeWidth=3;" edge="1" parent="1" source="3" target="2">
                    <mxGeometry relative="1" as="geometry"/>
                </mxCell>
                <mxCell id="3" value="COMMAND" style="shape=note;whiteSpace=wrap;html=1;backgroundOutline=1;darkOpacity=0.05;fillColor=#65D0FF;strokeColor=#006EAF;fontColor=#000000;fontSize=16;fontStyle=1;align=left;verticalAlign=top;spacing=10;fontFamily=Comic Sans MS;" vertex="1" parent="1">
                    <mxGeometry x="80" y="80" width="120" height="120" as="geometry"/>
                </mxCell>
                <mxCell id="5" value="" style="shape=note;whiteSpace=wrap;html=1;backgroundOutline=1;darkOpacity=0.05;fillColor=#ffff88;strokeColor=#36393d;fontSize=16;fontStyle=1;align=left;verticalAlign=top;spacing=10;fontFamily=Comic Sans MS;" vertex="1" parent="1">
                    <mxGeometry x="50" y="130" width="70" height="100" as="geometry"/>
                </mxCell>
                <mxCell id="6" value="USER" style="shape=umlActor;verticalLabelPosition=bottom;verticalAlign=top;html=1;outlineConnect=0;fontFamily=Comic Sans MS;fontStyle=1;fontSize=16;strokeWidth=2;" vertex="1" parent="1">
                    <mxGeometry x="70" y="160" width="20" height="40" as="geometry"/>
                </mxCell>
                <mxCell id="9" value="READ MODEL" style="shape=note;whiteSpace=wrap;html=1;backgroundOutline=1;darkOpacity=0.05;fillColor=#cdeb8b;strokeColor=#36393d;fontSize=16;fontStyle=1;align=left;verticalAlign=top;spacing=10;fontFamily=Comic Sans MS;" vertex="1" parent="1">
                    <mxGeometry x="160" y="240" width="120" height="120" as="geometry"/>
                </mxCell>
            </root>
        </mxGraphModel>
    </diagram>
</mxfile>